<svg height="511pt" viewBox="0 -72 511.99933 511" width="511pt" xmlns="http://www.w3.org/2000/svg"><path d="m359.699219 348.308594-167.597657-255.171875c-2.648437-4.027344-6.667968-6.335938-11.035156-6.335938-4.363281 0-8.382812 2.308594-11.03125 6.339844l-167.601562 255.167969c-2.804688 4.269531-3.207032 8.957031-1.101563 12.859375 2.105469 3.902343 6.246094 6.140625 11.355469 6.140625h336.761719c5.109375 0 9.246093-2.238282 11.351562-6.140625 2.105469-3.902344 1.703125-8.589844-1.101562-12.859375zm0 0" fill="#f2f8f9"/><path d="m359.699219 348.308594-167.597657-255.171875c-2.648437-4.027344-6.667968-6.335938-11.035156-6.335938v280.507813h168.382813c5.109375 0 9.246093-2.238282 11.351562-6.140625 2.105469-3.902344 1.703125-8.589844-1.101562-12.859375zm0 0" fill="#cfdde1"/><path d="m318.183594 91.957031c-25.214844 0-45.730469-20.515625-45.730469-45.730469 0-25.214843 20.515625-45.726562 45.730469-45.726562 25.210937 0 45.726562 20.511719 45.726562 45.726562 0 25.214844-20.511718 45.730469-45.726562 45.730469zm0 0" fill="#ffb74b"/><path d="m318.183594.5v91.457031c25.210937 0 45.726562-20.515625 45.726562-45.730469 0-25.214843-20.511718-45.726562-45.726562-45.726562zm0 0" fill="#ffa100"/><path d="m2.433594 348.308594c-2.804688 4.269531-3.207032 8.957031-1.101563 12.859375 2.105469 3.902343 6.246094 6.140625 11.355469 6.140625h336.761719c5.109375 0 9.246093-2.238282 11.351562-6.140625 2.105469-3.902344 1.703125-8.589844-1.101562-12.859375l-103.21875-157.148438c1.597656 2.429688 1.742187 5.542969.375 8.113282l-35.988281 67.6875c-1.382813 2.601562-4.089844 4.226562-7.035157 4.226562-2.945312 0-5.652343-1.625-7.035156-4.226562l-25.722656-48.382813-25.730469 48.382813c-1.382812 2.601562-4.089844 4.226562-7.035156 4.226562-2.945313 0-5.648438-1.625-7.03125-4.226562l-35.996094-67.6875c-1.367188-2.570313-1.222656-5.679688.375-8.113282" fill="#007aa0"/><path d="m359.699219 348.308594-103.21875-157.148438c1.597656 2.429688 1.742187 5.542969.375 8.113282l-35.988281 67.6875c-1.382813 2.601562-4.089844 4.226562-7.035157 4.226562-2.945312 0-5.652343-1.625-7.035156-4.226562l-25.722656-48.382813-.003907.007813v148.722656h168.378907c5.113281 0 9.25-2.238282 11.355469-6.140625 2.101562-3.902344 1.699218-8.589844-1.105469-12.859375zm0 0" fill="#005f7e"/><path d="m509.5625 348.308594-119.730469-182.289063c-2.644531-4.027343-6.667969-6.339843-11.03125-6.339843s-8.386719 2.3125-11.035156 6.339843l-119.726563 182.289063c-2.808593 4.269531-3.207031 8.957031-1.101562 12.859375 2.101562 3.902343 6.242188 6.140625 11.351562 6.140625h241.023438c5.109375 0 9.246094-2.238282 11.351562-6.140625 2.105469-3.902344 1.707032-8.589844-1.101562-12.859375zm0 0" fill="#f2f8f9"/><path d="m509.5625 348.308594-119.730469-182.289063c-2.644531-4.027343-6.667969-6.339843-11.03125-6.339843v207.628906h120.511719c5.109375 0 9.246094-2.238282 11.351562-6.140625 2.105469-3.902344 1.707032-8.589844-1.101562-12.859375zm0 0" fill="#cfdde1"/><path d="m509.5625 348.308594-87.710938-133.539063c1.742188 2.652344 1.742188 6.089844 0 8.746094l-36.394531 55.40625c-1.472656 2.242187-3.972656 3.59375-6.65625 3.59375-2.683593 0-5.1875-1.351563-6.660156-3.59375l-36.390625-55.40625c-1.746094-2.65625-1.746094-6.09375 0-8.746094l-87.714844 133.539063c-2.804687 4.269531-3.207031 8.957031-1.101562 12.859375 2.105468 3.902343 6.242187 6.140625 11.355468 6.140625h241.019532c5.113281 0 9.25-2.238282 11.355468-6.140625 2.105469-3.902344 1.707032-8.589844-1.101562-12.859375zm0 0" fill="#007aa0"/><path d="m509.5625 348.308594-87.710938-133.539063c1.742188 2.652344 1.742188 6.089844 0 8.746094l-36.394531 55.40625c-1.472656 2.242187-3.972656 3.59375-6.65625 3.59375v84.792969h120.511719c5.109375 0 9.246094-2.238282 11.351562-6.140625 2.105469-3.902344 1.707032-8.589844-1.101562-12.859375zm0 0" fill="#005f7e"/></svg>